<svg width="240" height="240" viewBox="0 0 240 240" fill="none" xmlns="http://www.w3.org/2000/svg">
<path fill-rule="evenodd" clip-rule="evenodd" d="M240 120C240 186.274 186.274 240 120 240C53.7258 240 0 186.274 0 120C0 53.7258 53.7258 0 120 0C186.274 0 240 53.7258 240 120ZM152.083 109.004C150.197 113.331 147.468 117.202 144.088 120.409C140.345 123.96 138.303 129.371 140.335 134.113L154 165.998C154.663 167.517 154.938 169.177 154.8 170.828C154.663 172.479 154.117 174.071 153.212 175.459C152.308 176.847 151.072 177.989 149.617 178.781C148.161 179.573 146.532 179.992 144.875 179.998H95.125C93.468 179.992 91.8386 179.573 90.3833 178.781C88.9279 177.989 87.6923 176.847 86.7875 175.459C85.8827 174.071 85.3371 172.479 85.1996 170.828C85.0621 169.177 85.3372 167.517 86 165.998L99.6652 134.113C101.697 129.371 99.6547 123.96 95.9121 120.409C92.5317 117.202 89.8031 113.331 87.9165 109.004C84.808 101.874 84.1632 93.9115 86.0839 86.3741C88.0046 78.8366 92.3814 72.1537 98.5232 67.3808C104.665 62.6078 112.222 60.0167 120 60.0167C127.778 60.0167 135.335 62.6078 141.477 67.3808C147.619 72.1537 151.995 78.8366 153.916 86.3741C155.837 93.9115 155.192 101.874 152.083 109.004Z" fill="#8247E5"/>
</svg>
